<?xml version="1.0" standalone="no"?>
<!DOCTYPE svg PUBLIC "-//W3C//DTD SVG 20010904//EN"
 "http://www.w3.org/TR/2001/REC-SVG-20010904/DTD/svg10.dtd">
<svg version="1.0" xmlns="http://www.w3.org/2000/svg"
 width="740.000000pt" height="164.000000pt" viewBox="0 0 740.000000 164.000000"
 preserveAspectRatio="xMidYMid meet">

<g transform="translate(0.000000,164.000000) scale(0.100000,-0.100000)"
fill="#000000" stroke="none">
<path d="M3780 1385 l0 -255 255 0 255 0 -2 253 -3 252 -252 3 -253 2 0 -255z
m235 165 l18 -20 14 20 c17 23 60 26 88 6 18 -13 17 -15 -22 -25 -48 -13 -66
-31 -61 -63 3 -20 10 -23 51 -26 48 -3 57 -22 11 -22 -14 0 -34 -5 -45 -11
-20 -10 -20 -11 -3 -30 9 -10 27 -19 39 -19 17 0 27 -10 39 -41 19 -46 16 -58
-7 -35 -13 14 -16 14 -27 1 -18 -21 -29 -19 -23 5 6 23 -22 39 -39 22 -16 -16
1 -51 28 -58 13 -3 21 -11 18 -16 -3 -5 -17 -7 -30 -4 -20 5 -24 3 -24 -16 -1
-23 -1 -23 -13 -2 -7 12 -18 19 -25 17 -7 -3 -20 -2 -30 2 -14 5 -11 9 16 20
35 15 44 51 16 62 -20 8 -36 -17 -22 -34 15 -19 -7 -17 -25 2 -13 13 -16 13
-27 0 -17 -21 -32 -19 -21 3 5 9 14 29 22 45 7 15 20 27 29 27 9 0 25 6 35 14
16 12 17 16 6 30 -7 9 -24 16 -36 16 -13 0 -32 3 -42 8 -13 5 -3 8 32 12 43 4
50 8 53 28 5 32 -22 59 -66 67 -35 6 -36 8 -17 21 27 20 69 17 90 -6z"/>
<path d="M6957 1290 c-205 -52 -279 -270 -138 -404 l31 -29 -40 -35 c-171
-146 -108 -390 119 -462 153 -48 323 3 403 122 74 109 57 236 -42 321 l-43 36
32 36 c44 51 63 101 64 170 2 98 -57 181 -161 227 -50 23 -169 32 -225 18z
m162 -196 c24 -20 31 -34 31 -62 0 -51 -33 -102 -65 -102 -58 0 -145 67 -145
112 0 11 13 33 29 49 40 40 105 41 150 3z m-75 -210 c22 -8 20 -26 -1 -22 -13
2 -19 -5 -21 -24 -2 -16 1 -28 7 -28 16 0 22 18 9 23 -8 3 -6 6 5 6 26 1 23
-44 -3 -46 -29 -2 -47 39 -32 72 13 27 13 28 36 19z m-121 -11 c-26 -5 -31
-23 -8 -23 8 0 15 -4 15 -10 0 -5 -7 -10 -15 -10 -8 0 -15 -4 -15 -10 0 -5 9
-10 21 -10 11 0 17 -4 14 -10 -3 -5 -15 -10 -26 -10 -16 0 -19 7 -19 45 0 43
1 45 28 44 23 -2 24 -2 5 -6z m57 -38 c0 -25 -4 -45 -10 -45 -5 0 -10 20 -10
45 0 25 5 45 10 45 6 0 10 -20 10 -45z m130 30 c0 -8 5 -15 10 -15 6 0 10 7
10 15 0 8 5 15 10 15 6 0 10 -18 10 -39 0 -22 -4 -43 -10 -46 -5 -3 -10 3 -10
14 0 12 -4 21 -10 21 -5 0 -10 -6 -10 -14 0 -8 -4 -18 -10 -21 -6 -4 -10 12
-10 39 0 25 5 46 10 46 6 0 10 -7 10 -15z m103 8 c-7 -2 -14 -23 -15 -46 l-1
-42 -4 40 c-3 22 -10 43 -16 47 -7 4 1 7 18 7 17 0 24 -3 18 -6z m-121 -154
c44 -22 78 -62 78 -90 0 -15 -11 -41 -25 -58 -97 -114 -278 -3 -210 129 25 49
50 61 96 45 21 -8 48 -19 61 -26z"/>
<path d="M5050 815 l0 -475 650 0 650 0 0 475 0 475 -650 0 -650 0 0 -475z
m443 329 c35 -6 37 -8 37 -45 l0 -39 -89 0 c-140 0 -161 -28 -161 -222 l0
-108 -40 0 -40 0 0 206 0 205 38 -3 c31 -3 37 -7 40 -29 l3 -26 30 28 c39 36
96 47 182 33z m584 -115 c15 -6 49 -11 76 -10 l47 2 0 -158 c0 -137 -3 -162
-19 -189 -37 -61 -128 -81 -201 -44 -38 19 -76 70 -63 84 14 14 71 5 88 -14
36 -40 115 -15 115 36 0 23 -1 23 -36 8 -46 -19 -86 -11 -130 28 -82 72 -60
210 41 254 37 16 47 17 82 3z m-268 -14 c40 -20 51 -61 51 -181 l0 -104 -40 0
-40 0 0 91 c0 109 -8 129 -55 129 -47 0 -55 -20 -55 -129 l0 -91 -40 0 -40 0
0 145 0 145 35 0 c24 0 35 -5 35 -15 0 -17 16 -20 25 -4 18 29 82 36 124 14z
m-289 -140 l0 -145 -40 0 -40 0 0 145 0 145 40 0 40 0 0 -145z m-180 -290 c0
-21 5 -25 30 -25 26 0 30 4 30 26 0 14 4 23 10 19 6 -3 10 -28 10 -55 0 -27
-4 -52 -10 -55 -6 -4 -10 5 -10 19 0 22 -4 26 -30 26 -25 0 -30 -4 -30 -25 0
-14 -4 -25 -10 -25 -6 0 -10 27 -10 60 0 33 4 60 10 60 6 0 10 -11 10 -25z
m391 -25 c24 0 29 4 29 25 0 14 5 25 10 25 6 0 10 -27 10 -60 0 -33 -4 -60
-10 -60 -5 0 -10 11 -10 25 0 21 -5 25 -29 25 -25 0 -30 -5 -34 -27 -2 -16 -4
1 -4 37 0 36 2 53 4 38 4 -23 9 -28 34 -28z m-227 8 c3 -7 7 -27 10 -44 5 -31
4 -32 -32 -30 -50 2 -57 32 -12 47 22 8 28 15 21 22 -7 7 -15 6 -26 -3 -14
-12 -22 0 -8 13 11 12 43 8 47 -5z m53 -55 c-2 -16 -4 -5 -4 22 0 28 2 40 4
28 2 -13 2 -35 0 -50z m83 57 c0 -4 -5 -10 -11 -12 -6 -2 -14 -19 -19 -38 l-8
-35 -1 45 c-1 39 2 46 19 47 11 1 20 -2 20 -7z m241 -36 l5 -42 -35 2 c-45 1
-56 31 -17 46 27 10 36 30 13 30 -7 0 -18 -5 -25 -12 -7 -7 -12 -8 -12 -2 0
18 13 25 40 22 21 -3 26 -9 31 -44z m49 10 c0 -49 32 -44 41 6 6 34 6 33 8
-11 1 -46 1 -46 -31 -45 -31 1 -33 3 -36 44 -2 25 1 42 7 42 6 0 11 -16 11
-36z m146 25 c5 -9 -1 -10 -20 -5 -33 8 -34 -7 0 -23 35 -16 29 -46 -10 -46
-16 0 -31 6 -34 13 -3 11 0 12 15 4 11 -7 25 -7 34 -2 11 7 7 12 -18 21 -31
10 -41 27 -26 42 11 11 51 8 59 -4z"/>
<path d="M6017 939 c-20 -15 -27 -30 -27 -54 0 -24 7 -39 27 -54 45 -36 97 -7
97 54 0 61 -52 90 -97 54z"/>
<path d="M5460 522 c0 -14 11 -21 26 -15 21 8 17 23 -6 23 -11 0 -20 -4 -20
-8z"/>
<path d="M5827 524 c-4 -4 -4 -10 -1 -15 6 -10 34 0 34 12 0 10 -24 12 -33 3z"/>
<path d="M191 1073 c-25 -9 -66 -37 -92 -63 -104 -104 -104 -266 0 -370 140
-140 368 -85 432 103 l16 49 7 -35 c19 -103 141 -197 257 -197 97 0 214 82
240 169 12 42 29 55 29 23 0 -27 54 -106 92 -135 123 -94 289 -66 376 62 18
25 35 61 38 79 l7 33 17 -50 c23 -69 58 -111 121 -146 l54 -30 335 0 c324 0
336 1 375 22 91 49 145 138 145 238 0 100 -54 189 -145 238 -39 21 -51 22
-375 22 l-335 0 -54 -30 c-63 -35 -98 -77 -121 -146 l-17 -50 -7 33 c-3 18
-20 54 -38 79 -87 128 -253 156 -376 62 -38 -29 -92 -108 -92 -135 0 -32 -17
-19 -29 23 -26 87 -143 169 -240 169 -116 0 -238 -94 -257 -197 l-7 -35 -16
49 c-23 67 -62 115 -122 148 -64 35 -153 42 -218 18z m174 -168 c36 -35 33
-55 -10 -55 -24 0 -35 5 -35 15 0 20 -29 19 -52 -2 -11 -10 -18 -30 -18 -55 0
-33 3 -38 24 -38 13 0 29 7 36 15 13 15 70 21 70 8 0 -5 -8 -18 -18 -29 -61
-76 -182 -49 -182 39 0 40 35 96 70 114 41 21 88 16 115 -12z m471 -26 c-4
-29 -10 -65 -13 -80 -5 -29 -5 -29 42 -29 39 0 46 -3 41 -16 -3 -9 -6 -20 -6
-25 0 -5 -34 -9 -75 -9 -87 0 -85 -6 -60 123 8 43 15 81 15 83 0 2 14 4 31 4
l32 0 -7 -51z m537 31 c-4 -14 -14 -20 -34 -20 -31 0 -32 1 -23 24 4 9 18 16
34 16 23 0 27 -4 23 -20z m567 0 c31 -31 26 -60 -9 -60 -16 0 -31 6 -35 15 -7
19 -40 19 -56 0 -7 -9 -13 -32 -14 -53 -1 -33 2 -37 27 -40 18 -2 29 2 33 12
8 20 64 22 64 2 0 -8 -14 -26 -31 -40 -39 -33 -109 -36 -139 -6 -41 41 -18
144 38 174 40 22 98 20 122 -4z m-576 -57 c-2 -10 -8 -44 -14 -75 -10 -50 -14
-58 -34 -58 -32 0 -34 5 -24 58 18 96 17 92 47 92 22 0 28 -4 25 -17z m966
-23 c10 0 21 8 23 18 3 9 5 -1 5 -23 0 -22 -2 -32 -5 -22 -2 9 -13 17 -23 17
-10 0 -21 -8 -23 -17 -3 -10 -5 0 -5 22 0 22 2 32 5 23 2 -10 13 -18 23 -18z
m109 -17 c0 -16 -3 -22 -6 -15 -8 19 -26 14 -18 -5 5 -15 4 -16 -7 -5 -11 11
-10 16 5 27 18 13 18 13 0 18 -14 4 -14 5 5 6 18 1 22 -4 21 -26z m58 -10 c-3
-10 -5 -4 -5 12 0 17 2 24 5 18 2 -7 2 -21 0 -30z m65 12 c-2 -14 -6 -25 -8
-25 -2 0 -4 11 -4 25 0 14 4 25 9 25 4 0 6 -11 3 -25z"/>
<path d="M3842 898 c-8 -8 -12 -50 -12 -126 l0 -114 -49 44 c-79 71 -158 85
-247 44 -126 -59 -194 -232 -149 -382 37 -124 129 -204 238 -204 75 0 122 20
174 77 l43 46 0 -45 c0 -53 19 -84 45 -74 16 6 17 14 10 79 -4 39 -11 204 -14
366 -6 291 -10 318 -39 289z m-146 -197 c210 -95 155 -491 -68 -491 -60 0 -93
17 -141 69 -69 77 -84 201 -37 308 27 61 54 91 105 114 51 23 89 23 141 0z"/>
<path d="M2768 848 c-3 -7 -1 -24 3 -38 6 -22 7 -20 8 13 1 38 -3 47 -11 25z"/>
<path d="M2962 854 c-1 -7 -11 -14 -22 -17 -23 -6 -27 -42 -7 -50 25 -9 39 9
34 44 -2 19 -5 29 -5 23z m-4 -41 c-4 -22 -22 -20 -26 1 -2 10 3 16 13 16 10
0 15 -7 13 -17z"/>
<path d="M2680 825 c0 -8 7 -15 15 -15 8 0 15 -5 15 -11 0 -6 -7 -8 -17 -4
-15 5 -16 4 -5 -6 10 -11 14 -11 25 0 10 10 8 15 -6 26 -18 13 -18 13 0 18 14
4 14 5 -4 6 -14 1 -23 -5 -23 -14z"/>
<path d="M2830 816 c0 -14 4 -27 8 -30 5 -3 6 8 4 25 -5 35 -12 38 -12 5z"/>
<path d="M2862 815 c0 -16 2 -22 5 -12 2 9 2 23 0 30 -3 6 -5 -1 -5 -18z"/>
<path d="M3077 833 c-12 -12 -7 -41 7 -46 19 -7 40 18 32 38 -6 15 -28 20 -39
8z m31 -20 c-4 -22 -22 -20 -26 1 -2 10 3 16 13 16 10 0 15 -7 13 -17z"/>
<path d="M4084 736 c-9 -24 4 -48 23 -44 12 2 18 12 18 28 0 29 -32 41 -41 16z"/>
<path d="M4342 578 c-7 -7 -12 -15 -12 -19 0 -4 27 -40 60 -79 33 -39 60 -74
60 -76 0 -3 -41 -53 -90 -111 -50 -59 -89 -111 -87 -117 2 -6 12 -12 23 -14
14 -2 43 26 104 99 l85 101 47 -53 c27 -30 65 -75 86 -101 20 -26 45 -47 55
-48 41 -1 26 32 -62 136 -78 93 -89 110 -78 123 7 9 34 41 60 72 50 60 59 89
28 89 -12 0 -41 -26 -73 -64 -29 -36 -56 -65 -60 -65 -3 -1 -30 27 -58 62 -60
72 -72 81 -88 65z"/>
<path d="M4084 547 c-2 -7 -3 -96 -2 -197 3 -183 3 -185 26 -188 l22 -3 0 200
c0 195 -1 201 -20 201 -11 0 -23 -6 -26 -13z"/>
<path d="M3770 50 c0 -27 5 -50 10 -50 6 0 10 11 10 25 0 20 5 25 24 25 19 0
26 -6 29 -28 2 -15 4 -2 4 28 0 30 -2 45 -4 33 -6 -31 -53 -33 -53 -3 0 11 -4
20 -10 20 -5 0 -10 -22 -10 -50z"/>
<path d="M4116 53 c-9 -25 -14 -49 -11 -51 2 -3 7 3 11 12 8 22 51 21 57 -2 4
-14 5 -14 6 -1 1 22 -27 89 -38 89 -5 0 -16 -21 -25 -47z m43 -5 c1 -5 -6 -8
-14 -8 -16 0 -19 9 -8 36 6 16 7 16 14 -2 4 -10 8 -22 8 -26z"/>
<path d="M4262 49 c4 -56 23 -62 22 -7 -1 23 -7 44 -13 46 -9 3 -11 -9 -9 -39z"/>
<path d="M3884 69 c-4 -8 0 -9 15 -4 12 3 21 2 21 -4 0 -5 -9 -13 -20 -16 -11
-3 -20 -15 -20 -26 0 -14 7 -19 30 -19 24 0 30 4 30 21 0 45 -38 77 -56 48z
m36 -44 c0 -8 -7 -15 -15 -15 -16 0 -20 12 -8 23 11 12 23 8 23 -8z"/>
<path d="M4001 35 c2 -33 3 -35 6 -10 2 17 11 35 20 42 13 10 13 12 -6 10 -18
-1 -21 -7 -20 -42z"/>
<path d="M4213 73 c-15 -6 -17 -59 -3 -68 6 -4 10 8 10 29 0 19 6 37 13 39 6
3 8 5 2 5 -5 0 -16 -2 -22 -5z"/>
<path d="M3960 40 c0 -17 5 -30 10 -30 6 0 10 13 10 30 0 17 -4 30 -10 30 -5
0 -10 -13 -10 -30z"/>
</g>
</svg>
